<?xml version="1.0" encoding="UTF-8"?>
<svg width="400px" height="400px" viewBox="0 0 400 400" version="1.1" xmlns="http://www.w3.org/2000/svg" xmlns:xlink="http://www.w3.org/1999/xlink">
    <title>Profile Photo</title>
    <g id="Profile-Photo" stroke="none" stroke-width="1" fill="none" fill-rule="evenodd">
        <rect id="Rectangle" fill="#B9D3B3" x="0" y="0" width="400" height="400"></rect>
        <g id="magnifying_glass" transform="translate(37.697832, 48.000000)">
            <polyline id="Path" fill="#E2E2E2" fill-rule="nonzero" points="123.200649 210 179.302168 161.865464 158.41255 138 102.302168 186.125762"></polyline>
            <path d="M123.629245,216 C121.395663,216.006411 119.394067,214.6173 118.611977,212.517984 C117.829887,210.418668 118.432556,208.05273 120.12265,206.587444 L172.427887,161.114367 L158.463804,144.914806 L106.140766,190.396814 C103.911665,192.335116 100.538649,192.093223 98.6069254,189.856531 C96.6752013,187.619838 96.9162733,184.235336 99.1453747,182.297033 L155.482307,133.305419 C157.711802,131.370771 161.081873,131.614594 163.011698,133.850167 L183.997873,158.140578 C184.925885,159.215215 185.390132,160.615914 185.288371,162.034187 C185.187134,163.453361 184.527524,164.773862 183.454974,165.70454 L127.118041,214.687224 C126.152849,215.535866 124.912562,216.002557 123.629245,216 Z" id="Path" fill="#191616" fill-rule="nonzero"></path>
            <polygon id="Rectangle" fill="#FFFFFF" fill-rule="nonzero" points="159.477842 147 165.302168 153.672948 109.126494 202 103.302168 195.327052"></polygon>
            <path d="M86.302168,182.285408 L104.242957,166.782647 C105.58191,165.625161 107.608173,165.768054 108.770404,167.101926 C115.457799,172.909303 121.70147,179.205918 127.449461,185.939376 C137.829679,197.885726 142.517233,205.982991 142.517233,205.982991 C143.678104,207.318041 143.534792,209.338396 142.19702,210.497239 L124.256231,226" id="Path" fill="#BBBFBF" fill-rule="nonzero"></path>
            <path d="M124.179294,231 C121.97615,230.998406 120.005446,229.631527 119.235094,227.570705 C118.464741,225.509882 119.056597,223.188113 120.719972,221.745733 L137.092335,207.578706 C132.965043,201.217069 128.372374,195.168762 123.351873,189.48323 C118.083585,183.369568 112.417252,177.609407 106.389753,172.240237 L90.0437962,186.389686 C87.8391506,188.297207 84.5031413,188.059155 82.5926106,185.857983 C80.68208,183.656811 80.920507,180.326057 83.1251523,178.418537 L100.879484,163.056277 C104.26245,160.14119 109.330985,160.348842 112.463371,163.530855 C119.208816,169.416143 125.518965,175.780967 131.344403,182.575487 C140.718902,193.385315 145.560192,201.136752 146.616474,202.894448 C149.268019,206.433494 148.738369,211.415088 145.40175,214.319469 L127.647418,229.67294 C126.690429,230.519936 125.458131,230.991469 124.179294,231 Z" id="Path" fill="#191616" fill-rule="nonzero"></path>
            <path d="M53.9228309,298 L129.372837,232.833477 C133.281799,229.445695 132.947248,224.978388 130.314861,219.668523 C130.314861,219.668523 124.962049,210.821673 113.948285,198.156988 C101.939672,184.325009 94.9493218,178.927378 94.9493218,178.927378 C90.1071394,175.969651 85.6435277,174.600496 81.7433698,177.979501 L6.30216802,243.154801" id="Path" fill="#F2F2F2" fill-rule="nonzero"></path>
            <path d="M48.1318247,299.567477 C47.3625643,297.501371 47.951364,295.172423 49.6086812,293.725896 L124.715119,228.322796 C125.591506,227.591789 126.809685,226.499682 124.487258,221.638046 C119.760853,214.374454 114.514977,207.465972 108.791152,200.967285 C98.5286501,189.059799 92.0170885,183.555229 90.8076732,182.56881 C85.9700124,179.644782 84.848236,180.622394 84.1033063,181.274135 L9.00563283,246.677234 C7.58570977,247.913829 5.61718502,248.295214 3.84158289,247.677728 C2.06598075,247.060241 0.753057459,245.537692 0.397378548,243.683611 C0.0416996361,241.829531 0.697301201,239.925596 2.11722446,238.689002 L77.2411896,173.285903 C84.9621664,166.565924 93.7172808,171.947191 96.5918329,173.717461 C96.7581769,173.812909 96.9164566,173.921897 97.0650824,174.043332 C97.3630542,174.272322 104.610782,179.944231 116.766281,194.044737 C127.896406,206.94745 133.365066,215.974945 133.592927,216.353659 C133.671689,216.483988 133.741948,216.619318 133.80326,216.758795 C138.807435,226.975277 135.363231,233.025901 131.594763,236.311028 L56.4883257,301.714128 C55.5360291,302.541047 54.3201919,302.997293 53.0616492,303 C50.8665294,303.002074 48.9010851,301.633582 48.1318247,299.567477 Z" id="Path" fill="#191616" fill-rule="nonzero"></path>
            <line x1="5.30216802" y1="244" x2="52.302168" y2="298" id="Line" stroke="#191616" stroke-width="12" stroke-linecap="round"></line>
            <polyline id="Path" fill="#191616" fill-rule="nonzero" points="18.302168 256.455994 89.2754094 195 125.302168 236.544006 54.3289266 298"></polyline>
            <path d="M53.0546923,300 C52.1741859,300.005017 51.335698,299.620356 50.7605747,298.947435 C50.2312376,298.332384 49.9658657,297.530187 50.0229131,296.717546 C50.0799606,295.904905 50.4547477,295.148483 51.0647191,294.6149 L118.993192,235.204788 L87.3274183,198.369466 L19.3989449,257.779578 C18.5827946,258.534698 17.4245306,258.782538 16.3749903,258.426631 C15.32545,258.070723 14.5504571,257.1673 14.3516664,256.068005 C14.1528758,254.96871 14.5616955,253.847229 15.4189985,253.140081 L85.6415894,191.747879 C86.909445,190.641243 88.825447,190.778527 89.9256802,192.05484 L125.554021,233.58228 C126.085081,234.194878 126.351682,234.996192 126.29457,235.80812 C126.237457,236.620047 125.861361,237.375312 125.249877,237.906045 L55.0272858,299.298248 C54.4714962,299.758124 53.7733593,300.006442 53.0546923,300 Z" id="Path" fill="#191616" fill-rule="nonzero"></path>
            <path d="M175.196704,107 C171.941242,107 169.302168,104.360927 169.302168,101.105464 C169.344398,63.5093612 199.811529,33.0422301 237.407632,33 C240.663095,33 243.302168,35.6390735 243.302168,38.8945356 C243.302168,42.1499977 240.663095,44.7890712 237.407632,44.7890712 C206.31976,44.8248026 181.126971,70.0175917 181.091239,101.105464 C181.091239,102.668792 180.47021,104.168091 179.36477,105.27353 C178.25933,106.37897 176.760032,107 175.196704,107 L175.196704,107 Z" id="Path" fill="#FFFFFF" fill-rule="nonzero"></path>
            <ellipse id="Oval" fill="#FFFFFF" fill-rule="nonzero" transform="translate(263.370398, 63.258346) rotate(-68.460000) translate(-263.370398, -63.258346) " cx="263.370398" cy="63.258346" rx="7.71462406" ry="11.4218988"></ellipse>
            <path d="M227.802168,194 C174.039774,194 130.302168,150.487997 130.302168,97.0029144 C130.302168,43.5178319 174.039774,0 227.802168,0 C281.564562,0 325.302168,43.5178319 325.302168,97.0029144 C325.302168,150.487997 281.564562,194 227.802168,194 Z M227.802168,26.8482143 C188.919947,26.8482143 157.288775,58.3209435 157.288775,97.0024288 C157.288775,135.683914 188.919947,167.151786 227.802168,167.151786 C266.684389,167.151786 298.315561,135.683914 298.315561,97.0024288 C298.315561,58.3209435 266.684389,26.8482143 227.802168,26.8482143 Z" id="Shape" fill="#191616" fill-rule="nonzero"></path>
        </g>
    </g>
</svg>